<?xml version="1.0" encoding="UTF-8"?>
<svg id="Layer_1" xmlns="http://www.w3.org/2000/svg" version="1.1" viewBox="0 0 2987 749">
  <!-- Generator: Adobe Illustrator 29.8.3, SVG Export Plug-In . SVG Version: 2.1.1 Build 3)  -->
  <defs>
    <style>
      .st0 {
        fill: #caa554;
      }

      .st1 {
        fill: #fff;
      }
    </style>
  </defs>
  <path class="st1" d="M2044.09,235.85v13.77h-148.1v290.77h-35.97V235.85h184.07,0Z"/>
  <path class="st1" d="M1406.18,239.41v6.88c10.66-.22,21.76-.89,23.1,12.21l-.45,262.7c-2.44,11.55-13.54,9.1-22.65,9.1v6.88h83.27v-6.88c-19.54,1.33-23.09-1.11-24.43-20.21v-121.91h96.14v133.46c0,9.1-16.87,9.55-23.09,8.66v6.88h83.49v-6.88c-10.22,0-21.54,2.44-23.09-10.88l.88-265.81c2.89-8.66,14.88-7.11,22.21-7.33v-6.88h-83.27v6.88c5.56,0,13.1-.67,18.21,2,1.56.89,4.89,5.55,4.89,6.66v119.47h-94.37l-1.77-1.78v-108.59c0-.44,1.11-7.99,1.33-8.88,2.44-10.44,14.43-8.88,22.87-8.88v-6.88h-83.49.22Z"/>
  <path class="st1" d="M389.05,239.41l-1.78,6.88c13.32,0,22.65-1.11,24.42,14.43v252.93c-1.33,17.54-8.22,17.32-24.42,16.65v6.88h83.48v-6.88c-6.44-.44-16.65,2-20.43-4.44-.67-.89-2.66-6-2.66-6.66v-129.91h96.14v128.8c0,.44-2,6-2.44,6.88-4.22,7.11-13.77,5.11-20.65,5.33v6.88h82.15v-6.88c-11.1,0-20.2,1.78-22.65-11.55-3.55-19.98,1.78-45.97-.44-66.4-1.11-10.66-8.21-25.09-10.21-37.31-3.55-23.54-2.22-50.19,3.55-73.28,1.55-6,5.77-14.88,6.44-19.99,2.89-19.1-2.89-44.64.67-64.18,2.22-12.66,11.99-11.55,22.65-11.55v-6.88h-82.15v6.88c5.99,0,17.32-.44,20.65,5.33.44.67,2.44,6.44,2.44,6.88v116.14h-96.14v-117.25c0-.44,2.44-5.77,2.89-6.44,4.22-5.55,13.99-4.66,20.2-4.66v-6.88h-81.71v.25h0Z"/>
  <path class="st1" d="M1221.01,386.41l2.66,1.78,111.46.89c6.22,2.44,6.89,13.32,7.33,19.32,2.22,31.76-1.77,66.17,0,98.37l-.66,2.89c-45.08,36.2-112.8,29.76-150.54-13.77-62.84-72.84-43.08-245.16,71.71-251.82,19.76-1.11,67.95,7.55,73.94,30.2,5.77,22.21-12.43,32.2-25.31,45.97v2.22l3.55,3.33,53.73-53.74c-59.95-52.63-166.52-45.97-216.48,17.32-47.74,60.62-44.41,172.1,19.76,220.51,53.96,40.64,156.09,41.75,205.38-7.55l.89-105.26c2-11.32,14.21-8.66,22.87-8.88v-13.77h-180.74v11.99h.45Z"/>
  <path class="st1" d="M1825.69,276.11h-6.21s-7.84-16.26-14.39-20.67c-9.68-6.6-23.02-9.5-34.88-9.19-1.07.02-2.11.09-3.13.15-3.13.27-5.6.76-7.48,1.49-.34.11-.67.24-.96.38-.22.11-.44.22-.67.36-2.82,1.46-4.17,3.69-4.95,6.68,0,.04-.04.11-.04.15-.13.31-.25.62-.33.93v260.7c-.23,5.55,4.21,13.32,9.99,13.32h17.76v6.88h-92.37v-6.88h17.77c5.77,0,10.21-7.77,9.99-13.32v-260.7c-.09-.31-.2-.62-.33-.93,0-.07-.03-.11-.05-.15-.78-3-2.13-5.22-4.95-6.68-.22-.13-.44-.24-.67-.36-.29-.13-.62-.27-.95-.38-1.89-.73-4.35-1.22-7.48-1.49-1.03-.07-2.07-.13-3.13-.15-11.86-.31-25.21,2.6-34.89,9.19-6.55,4.42-14.38,20.67-14.38,20.67h-6.22l6.33-28.94,1.66-7.66h166.97l1.67,7.66,6.32,28.94h0Z"/>
  <path class="st1" d="M369.95,276.11h-6.22s-7.84-16.26-14.39-20.67c-9.68-6.6-23.03-9.5-34.88-9.19-1.07.02-2.11.09-3.13.15-3.13.27-5.6.76-7.48,1.49-.33.11-.67.24-.95.38-.22.11-.44.22-.67.36-2.82,1.46-4.17,3.69-4.95,6.68,0,.04-.04.11-.04.15-.13.31-.24.62-.33.93v260.7c-.22,5.55,4.22,13.32,9.99,13.32h17.76v6.88h-92.37v-6.88h17.76c5.77,0,10.21-7.77,9.99-13.32v-260.7c-.09-.31-.2-.62-.33-.93,0-.07-.02-.11-.04-.15-.78-3-2.13-5.22-4.95-6.68-.22-.13-.44-.24-.67-.36-.29-.13-.62-.27-.96-.38-1.89-.73-4.35-1.22-7.48-1.49-1.02-.07-2.07-.13-3.13-.15-11.86-.31-25.2,2.6-34.88,9.19-6.55,4.42-14.39,20.67-14.39,20.67h-6.22l6.33-28.94,1.66-7.66h166.97l1.67,7.66,6.33,28.94h0Z"/>
  <path class="st1" d="M1987.07,374.42h-97.34v13.77h97.34v-13.77Z"/>
  <path class="st1" d="M1063.37,239.41v6.88c11.76,0,21.53-.89,23.09,13.32-3.33,68.84,4.44,141.68,0,210.29-2.67,40.64-25.54,65.95-67.95,62.84-33.52-2.44-46.84-27.98-50.17-58.4v-75.64h-28.86v-.09h-1.11c.89,11.1-4.66,22.65-5.77,33.09-5.55,56.63,9.99,103.26,73.49,107.92,49.96,3.78,83.71-14.88,87.48-67.51,4.66-68.4-3.55-142.12,0-211.18,1.78-15.32,9.55-14.66,23.09-14.66v-6.88h-53.28v.02h0Z"/>
  <path class="st1" d="M932.59,327.79c1.11,11.33,6.66,24.43,6.88,36.42h28.86v-105.7c.44-13.1,12.88-12.44,23.09-12.21v-6.88h-83.26v6.88c19.98-1.11,23.09,2.22,24.42,21.32,1.11,19.1-2,41.08,0,60.18h.01Z"/>
  <path class="st0" d="M805.59,236.54c21.38,9.15,40.54,22.12,56.95,38.53,15.74,15.74,28.13,34.51,36.84,55.74,4.17,10.17,7.39,20.74,9.61,31.44l.38,1.78h21.01l-.24-2.44c-1.64-16.14-5.64-32.2-11.9-47.68-8.66-21.21-21.36-40.28-37.81-56.67-16.5-16.5-35.66-29.2-56.93-37.77-6.66-2.71-13.63-5.06-20.67-6.95l-2.33-.62-3.91,21.03,1.73.67c2.18.84,4.73,1.84,7.3,2.98h-.02v-.04h-.01Z"/>
  <path class="st0" d="M912.34,402.54c-.6,18.14-4.22,35.82-10.79,52.54-7.15,18.34-18.12,35.02-32.59,49.54-14.16,13.81-29.69,24.32-46.18,31.2-16.5,6.88-33.79,10.39-51.4,10.39-9.86,0-19.72-1.04-29.38-3.09-2.02-.38-4.09-.84-6.17-1.38-2.49-.62-4.35-1.13-6.13-1.69-5.97-1.75-12.08-3.98-18.65-6.77-1-.42-2.07-.89-3.11-1.35-.96-.42-1.91-.87-2.86-1.35-2-.93-3.97-1.91-5.93-2.91-17.43-9.04-33.57-20.9-47.98-35.26-16.76-16.43-30.04-36.02-39.5-58.25-4.48-10.42-7.95-21.19-10.35-32.04-.44-1.89-.89-3.95-1.31-6.31-.38-2.11-.71-4.24-1.02-6.35-.71-5.2-1.2-10.19-1.44-14.83-.09-2.11-.18-4.24-.18-6.46-.04-.78-.04-1.55-.04-2.33,0-1.29,0-2.55.09-3.93.38-17.43,3.75-34.4,10.06-50.45,6.79-17.23,17.36-33.07,31.42-47.08,14.08-14.12,29.84-24.69,46.87-31.42,17.07-6.75,35.12-10.19,53.66-10.19,5.22,0,10.12.22,15.03.67l2.02.18,3.17-17.05h-2.66c-23.07,0-46.03,4.6-68.19,13.68-22.36,9.13-42.52,22.58-59.88,39.99-17.79,17.74-31.42,37.8-40.5,59.62-5.66,13.52-9.61,27.56-11.72,41.7-.31,2.18-.6,4.35-.82,6.48-.27,2.18-.44,4.35-.62,6.55-.31,4.53-.47,8.77-.47,12.9,0,.82,0,1.62.04,2.31,0,1.98.07,4.06.22,6.53.09,2.44.24,4.6.44,6.55,1.51,16.99,5.62,33.73,12.21,49.76,8.57,20.79,21.29,39.68,37.81,56.16,17.07,16.81,36.79,29.87,58.64,38.79,3.82,1.56,6.9,2.71,9.7,3.64,2.4.84,4.4,1.51,6.26,2.04,2.09.64,4.22,1.27,6.31,1.82,6.44,1.73,13.05,3.09,19.8,4.06,2.13.29,4.24.6,6.33.8,1.98.24,4.11.42,6.53.55,3.93.33,8.06.49,12.66.49,23.05,0,45.72-4.42,67.32-13.17,21.58-8.73,41.25-21.85,58.46-39.08,17.43-17.74,30.89-37.95,39.99-60.09,6.08-14.81,10.17-30.2,12.17-45.74l.33-2.51h-17.54l-.07,2.15h-.07v-.02h0Z"/>
  <path class="st1" d="M2232.82,527.2h-124.12v13.55h124.12v-13.55Z"/>
  <path class="st1" d="M2072.26,296.03h-35.97v184.76h35.97v-184.76h0Z"/>
  <path class="st1" d="M2304.75,296.03h-35.97v184.76h35.97v-184.76h0Z"/>
  <path class="st1" d="M2232.82,249.62v-13.21h-124.54v13.21h-35.97v46.41h35.97v-46.08h124.54v46.08h35.96v-46.41h-35.96Z"/>
  <path class="st1" d="M2108.7,480.79h-35.97v46.41h35.97v-46.41Z"/>
  <path class="st1" d="M2268.78,480.79h-35.96v46.41h35.96v-46.41Z"/>
  <path class="st1" d="M2479.27,249.62v138.79h-117.81v-138.79h117.81v-14.43h-153.87v305.56h36.06v-137.32h56.58v46.28h35.03v61.07h35.88v-61.07h-35.88v-46.28h26.2v-15.01h30.2v-138.79h-30.2Z"/>
  <path class="st1" d="M2504.81,510.77h-15.77v29.98h15.77v-29.98Z"/>
  <path class="st1" d="M2763.34,235.19v61.96h-35.52v59.96h-14.39v61.96h14.43v-61.89h35.48v183.58h35.66V235.19h-35.66Z"/>
  <path class="st1" d="M2612.94,357.1v-59.96h-35.53v-61.96h-35.66v305.56h35.66v-183.58h35.53v61.89h14.43v-61.96h-14.43Z"/>
  <path class="st1" d="M2649.17,419.06h-21.8v61.29h21.8v-61.29Z"/>
  <path class="st1" d="M2713.65,419.06h-21.8v61.29h21.8v-61.29Z"/>
  <path class="st1" d="M2691.85,480.35h-42.68v60.4h42.68v-60.4Z"/>
  <path class="st0" d="M1001.68,374.38l-4.46,15.03h-213.89v.04h-8.77l-2.11,11.61h-15.77l-24.87,128.17c-6.13-1.89-12.3-4.2-18.36-6.86l19.52-106.55h-7.53l2.66-14.74-10.7-.05h-6.93l2.18-11.66h-100.89c-.73-4.97-1.24-9.97-1.51-15.03h105.33v-.04h8.77l2.11-11.61h15.77l25.13-133.55,1.16-6.33,1.2-6.31.18-1.02,1.2-6.33,1.15-6.31,2.53-13.61h20.09l-3,16.19-1.15,6.31-1.2,6.33-.55,2.91-1.15,6.33-1.2,6.37-20.34,109.74h.51l11.48.09-4.06,18.21h14.48l-.18.98-2.18,11.66h215.39l-.05.02h.01Z"/>
</svg>