<?xml version="1.0" encoding="UTF-8"?>
<svg id="Layer_1" xmlns="http://www.w3.org/2000/svg" version="1.1" viewBox="0 0 702.44 699.76">
  <!-- Generator: Adobe Illustrator 29.8.3, SVG Export Plug-In . SVG Version: 2.1.1 Build 3)  -->
  <defs>
    <style>
      .st0 {
        fill: #caa554;
      }
    </style>
  </defs>
  <path class="st0" d="M257.44,222.89c4.6,4.6,9.71,8.29,14.78,12.07l-35.14,35.14c-3.11-4.17-5.95-8.5-9.62-12.35L7.2,37.49,39.63,5.06l217.83,217.83h-.02Z"/>
  <path class="st0" d="M438.98,468.32l231.44,231.44,32.02-32.02-231.44-231.44c-2.26-2.26-3.89-4.89-5.95-7.28l-33.34,33.34c2.38,2.06,5.01,3.7,7.27,5.96Z"/>
  <g>
    <path class="st0" d="M438.98,217.83c-4.6,4.6-9.71,8.29-14.78,12.07l35.14,35.14c3.11-4.17,5.95-8.5,9.62-12.35l79.48-79.48-32.43-32.43-77.05,77.05h.02Z"/>
    <rect class="st0" x="546.1" y="45.86" width="148.7" height="45.86" transform="translate(133.08 458.87) rotate(-45)"/>
    <rect class="st0" x="556.7" y="148.92" width="50.39" height="44.19" transform="translate(49.51 461.55) rotate(-45)"/>
  </g>
  <path class="st0" d="M250.24,471.38c4.6-4.6,9.71-8.29,14.78-12.07l-35.14-35.14c-3.11,4.17-5.95,8.5-9.62,12.35L0,656.78l32.43,32.43,217.83-217.83h-.02Z"/>
</svg>