<svg width="896" height="906" viewBox="0 0 896 906" fill="none" xmlns="http://www.w3.org/2000/svg">
<g opacity="0.33">
<path d="M550.762 65.3784C566.504 69.7448 582.146 75.0409 597.599 81.3745L597.609 81.3794C648.729 102.053 694.13 132.34 733.722 172.154L733.725 172.156C773.419 211.969 803.459 257.403 824.128 308.39V308.391C838.754 344.721 848.213 382.043 852.321 420.266H816.368C810.932 394.414 803.17 368.957 792.926 343.822C771.262 290.647 740.77 244.213 701.431 204.669L700.697 203.932H700.673C659.966 163.186 613.105 131.405 560.143 108.6H560.144C554.799 106.247 549.363 104.048 544.007 101.96L546.552 88.4517L546.555 88.4399L548.424 78.2456L548.425 78.2417L550.762 65.3784Z" stroke="url(#paint0_linear_1294_1454)" stroke-width="5"/>
<path d="M2.60352 491.107L2.60059 491.039C2.50112 489.229 2.5 487.409 2.5 485.508C2.5 475.152 2.91207 464.809 3.63574 454.457C4.05124 449.204 4.46351 444.008 5.0791 438.82L5.08203 438.8L5.08398 438.781C5.61797 433.588 6.33662 428.388 7.06348 423.137C12.1638 389.089 21.5189 355.653 35.1328 322.931L35.1338 322.928C56.9601 270.266 89.2827 222.411 132.133 179.423L132.138 179.419C174.141 137.071 221.934 105.102 275.468 83.1616L275.472 83.1597C327.836 61.6073 381.29 50.6351 435.633 50.2446L430.948 75.5142C419.3 74.4891 407.635 74.0298 395.887 74.0298C349.265 74.0298 304.721 82.6011 262.189 99.5356C219.505 116.49 180.54 142.768 145.296 178.301C110.491 213.186 84.7333 251.89 67.7588 294.328L66.957 296.352L66.9551 296.356C51.2708 336.565 42.8411 378.678 41.8965 422.681C41.6875 426.009 41.6885 429.323 41.6885 432.545C41.6885 434.523 41.6882 436.555 41.792 438.597C41.7933 443.89 42.0032 449.175 42.21 454.403V454.417L42.2109 454.43C42.8383 466.803 44.092 479.291 45.7832 491.539L45.7852 491.549C46.5367 496.827 47.3721 502.109 48.3125 507.393C49.254 512.683 50.3227 517.983 51.582 523.29C57.4738 550.128 65.9944 576.73 77.2236 603.035V603.036C100.761 658.721 133.457 707.143 175.206 748.259C211.025 784.156 250.636 813.434 294.035 836.038V836.039C298.881 838.564 303.812 841.007 308.765 843.326C311.07 844.487 313.464 845.63 315.886 846.696V846.697C318.409 847.874 321.051 849.025 323.577 850.089V850.09C339.026 856.746 354.37 862.45 369.856 867.009V867.008C374.92 868.576 380.054 869.953 385.082 871.22H385.083C390.261 872.603 395.416 873.754 400.588 874.718C424.794 879.903 449.211 882.454 473.647 882.454C517.779 882.454 560.55 873.769 601.943 856.411H601.944C643.338 839.044 681.658 813.007 716.99 778.325L717.002 778.314L717.014 778.301C752.688 742.34 779.638 701.597 797.656 655.76H797.678L798.299 654.169C814.421 612.914 823.319 569.924 825.036 525.212H851.144C846.253 561.656 836.709 597.379 822.408 632.445C800.578 685.839 768.669 734.126 726.658 777.104C685.397 818.607 638.829 849.928 586.886 871.035C534.912 892.153 481.278 902.699 425.782 902.699C415.694 902.699 405.628 902.389 395.576 901.545L395.546 901.542L395.516 901.541C390.32 901.231 385.155 900.8 379.978 900.184L379.929 900.178C374.754 899.665 369.596 898.926 364.341 898.197H364.34C348.569 895.885 332.883 892.667 317.407 888.481C312.405 887.118 307.327 885.653 302.338 884.087L302.315 884.08L302.293 884.074L300.431 883.518C296.086 882.199 291.742 880.73 287.364 879.175L287.319 879.16C280.531 876.892 273.713 874.29 266.953 871.567L264.06 870.393C212.502 849.202 166.387 818.792 125.684 778.972L123.749 777.069C84.0498 737.248 53.9107 692.225 33.3506 642.096C17.5514 603.438 7.78615 563.531 4.15234 522.471L4.15137 522.458L4.14941 522.446L3.9668 520.5C3.56112 515.957 3.30178 511.404 3.12109 506.835L3.12012 506.81L3.11914 506.786L3.00781 504.829C2.76103 500.265 2.60352 495.716 2.60352 491.176V491.107Z" stroke="url(#paint1_linear_1294_1454)" stroke-width="5"/>
<mask id="path-3-inside-1_1294_1454" fill="white">
<path d="M60.4937 454.281L334.91 454.177V454.281H60.4937Z"/>
</mask>
<path d="M60.4937 454.281L60.4918 449.281L60.4937 459.281V454.281ZM334.91 454.177H339.91V449.175L334.908 449.177L334.91 454.177ZM334.91 454.281V459.281H339.91V454.281H334.91ZM60.4937 454.281L60.4955 459.281L334.911 459.177L334.91 454.177L334.908 449.177L60.4918 449.281L60.4937 454.281ZM334.91 454.177H329.91V454.281H334.91H339.91V454.177H334.91ZM334.91 454.281V449.281H60.4937V454.281V459.281H334.91V454.281Z" fill="url(#paint2_linear_1294_1454)" mask="url(#path-3-inside-1_1294_1454)"/>
<mask id="path-5-inside-2_1294_1454" fill="white">
<path d="M339.295 519.768L365.43 519.871H339.295V519.768Z"/>
</mask>
<path d="M339.295 519.768L339.315 514.768L334.295 514.748V519.768H339.295ZM365.43 519.871V524.871L365.45 514.871L365.43 519.871ZM339.295 519.871H334.295V524.871H339.295V519.871ZM339.295 519.768L339.275 524.768L365.41 524.871L365.43 519.871L365.45 514.871L339.315 514.768L339.295 519.768ZM365.43 519.871V514.871H339.295V519.871V524.871H365.43V519.871ZM339.295 519.871H344.295V519.768H339.295H334.295V519.871H339.295Z" fill="url(#paint3_linear_1294_1454)" mask="url(#path-5-inside-2_1294_1454)"/>
<mask id="path-7-inside-3_1294_1454" fill="white">
<path d="M372.222 848.752L435.253 519.768L373.364 849.064C373.364 849.064 372.637 848.856 372.222 848.752Z"/>
</mask>
<path d="M372.222 848.752L367.311 847.811L366.421 852.457L371.01 853.603L372.222 848.752ZM435.253 519.768L440.167 520.691L430.342 518.827L435.253 519.768ZM373.364 849.064L371.991 853.871L377.265 855.378L378.278 849.987L373.364 849.064ZM372.222 848.752L377.132 849.693L440.163 520.708L435.253 519.768L430.342 518.827L367.311 847.811L372.222 848.752ZM435.253 519.768L430.339 518.844L368.45 848.14L373.364 849.064L378.278 849.987L440.167 520.691L435.253 519.768ZM373.364 849.064C374.737 844.256 374.737 844.256 374.737 844.256C374.737 844.256 374.737 844.256 374.737 844.256C374.737 844.256 374.737 844.256 374.737 844.256C374.737 844.256 374.736 844.256 374.736 844.256C374.736 844.255 374.735 844.255 374.734 844.255C374.732 844.254 374.729 844.254 374.726 844.253C374.72 844.251 374.711 844.248 374.699 844.245C374.676 844.238 374.644 844.229 374.603 844.218C374.523 844.195 374.412 844.164 374.286 844.129C374.05 844.063 373.71 843.97 373.434 843.901L372.222 848.752L371.01 853.603C371.149 853.638 371.381 853.701 371.611 853.765C371.719 853.795 371.816 853.822 371.885 853.841C371.919 853.851 371.947 853.859 371.965 853.864C371.975 853.867 371.981 853.869 371.986 853.87C371.988 853.871 371.99 853.871 371.99 853.871C371.991 853.871 371.991 853.871 371.991 853.871C371.991 853.871 371.991 853.872 371.991 853.871C371.991 853.871 371.991 853.871 371.991 853.871C371.991 853.871 371.991 853.871 371.991 853.871C371.991 853.871 371.991 853.871 373.364 849.064Z" fill="url(#paint4_linear_1294_1454)" mask="url(#path-7-inside-3_1294_1454)"/>
<path d="M525.429 2.6333L518.66 39.4185V39.4204L515.836 54.854L512.907 70.4048L511.557 77.5444L511.553 77.562L508.728 93.1128L505.801 108.753L505.8 108.76L456.148 378.056L455.604 381.009H459.834L484.766 381.193L475.507 422.853L474.832 425.895H510.311L505.074 453.933L504.522 456.892H891.985L882.623 488.681H500.29L478.85 488.785L476.77 488.795L476.402 490.841L471.64 517.27H433.189L432.8 519.299L370.296 845.529C356.921 841.281 343.486 836.204 330.184 830.434L379.795 556.464L380.329 553.519H361.917L367.872 520.293L368.398 517.353H325.354L330.14 491.723L330.693 488.764H66.2993C64.8094 478.213 63.7296 467.573 63.1147 456.872H334.904L356.344 456.767L358.423 456.757L358.792 454.71L363.553 428.283H402.013L402.396 426.243L463.765 98.5249L463.767 98.5112L466.589 82.98L469.518 67.5337L469.524 67.5054L469.529 67.4761L469.938 64.9937L472.864 49.4683L472.866 49.4556L475.691 34.0083L481.483 2.6333H525.429Z" stroke="url(#paint5_linear_1294_1454)" stroke-width="5"/>
<mask id="path-10-inside-4_1294_1454" fill="white">
<path d="M528.408 0L459.83 378.397H458.583L528.408 0Z"/>
</mask>
<path d="M528.408 0L533.328 0.891641L523.491 -0.907318L528.408 0ZM459.83 378.397V383.397H464.005L464.75 379.288L459.83 378.397ZM458.583 378.397L453.667 377.489L452.576 383.397H458.583V378.397ZM528.408 0L523.488 -0.891641L454.91 377.505L459.83 378.397L464.75 379.288L533.328 0.891641L528.408 0ZM459.83 378.397V373.397H458.583V378.397V383.397H459.83V378.397ZM458.583 378.397L463.5 379.304L533.325 0.907318L528.408 0L523.491 -0.907318L453.667 377.489L458.583 378.397Z" fill="url(#paint6_linear_1294_1454)" mask="url(#path-10-inside-4_1294_1454)"/>
</g>
<defs>
<linearGradient id="paint0_linear_1294_1454" x1="698.131" y1="62.2446" x2="698.131" y2="422.766" gradientUnits="userSpaceOnUse">
<stop stop-color="#ECE3D6"/>
<stop offset="1" stop-color="#ECE3D6" stop-opacity="0"/>
</linearGradient>
<linearGradient id="paint1_linear_1294_1454" x1="426.997" y1="47.7339" x2="426.997" y2="905.199" gradientUnits="userSpaceOnUse">
<stop stop-color="#ECE3D6"/>
<stop offset="1" stop-color="#ECE3D6" stop-opacity="0"/>
</linearGradient>
<linearGradient id="paint2_linear_1294_1454" x1="197.702" y1="454.177" x2="197.702" y2="454.281" gradientUnits="userSpaceOnUse">
<stop stop-color="#ECE3D6"/>
<stop offset="1" stop-color="#ECE3D6" stop-opacity="0"/>
</linearGradient>
<linearGradient id="paint3_linear_1294_1454" x1="352.362" y1="519.768" x2="352.362" y2="519.871" gradientUnits="userSpaceOnUse">
<stop stop-color="#ECE3D6"/>
<stop offset="1" stop-color="#ECE3D6" stop-opacity="0"/>
</linearGradient>
<linearGradient id="paint4_linear_1294_1454" x1="403.737" y1="519.768" x2="403.737" y2="849.064" gradientUnits="userSpaceOnUse">
<stop stop-color="#ECE3D6"/>
<stop offset="1" stop-color="#ECE3D6" stop-opacity="0"/>
</linearGradient>
<linearGradient id="paint5_linear_1294_1454" x1="355.521" y1="298.396" x2="347.691" y2="848.754" gradientUnits="userSpaceOnUse">
<stop stop-color="#ECE3D6"/>
<stop offset="1" stop-color="#ECE3D6" stop-opacity="0"/>
</linearGradient>
<linearGradient id="paint6_linear_1294_1454" x1="493.496" y1="0" x2="493.496" y2="378.397" gradientUnits="userSpaceOnUse">
<stop stop-color="#ECE3D6"/>
<stop offset="1" stop-color="#ECE3D6" stop-opacity="0"/>
</linearGradient>
</defs>
</svg>
