<?xml version="1.0" encoding="UTF-8"?>
<svg id="Layer_1" xmlns="http://www.w3.org/2000/svg" version="1.1" viewBox="0 0 928.84 948.1">
  <!-- Generator: Adobe Illustrator 29.8.3, SVG Export Plug-In . SVG Version: 2.1.1 Build 3)  -->
  <defs>
    <style>
      .st0 {
        fill: #caa554;
      }
    </style>
  </defs>
  <path class="st0" d="M443.67,312.4c0,8.3-.96,16.37-2.44,24.26h50.73c-1.48-7.88-2.44-15.96-2.44-24.26v-132.5h-45.85v132.5Z"/>
  <rect class="st0" x="443.67" width="45.85" height="63.99"/>
  <path class="st0" d="M443.67,620.79v327.31h45.28v-327.31c0-3.2.71-6.21.94-9.35h-47.15c.23,3.14.93,6.15.93,9.35h0Z"/>
  <rect class="st0" x="397.29" y="63.99" width="46.38" height="115.91"/>
  <path class="st0" d="M308.05,489.49c6.51,0,12.73,1,18.98,1.92v-49.7c-5.15.75-10.21,1.8-15.54,1.93H0v45.86h308.05Z"/>
  <path class="st0" d="M620.79,489.49c-6.51,0-12.73,1-18.98,1.92v-49.7c5.15.75,10.21,1.8,15.54,1.93h311.49v45.86h-308.05Z"/>
</svg>