<svg width="1227" height="143" viewBox="0 0 1227 143" fill="none" xmlns="http://www.w3.org/2000/svg">
<g clip-path="url(#clip0_223_1530)">
<path d="M334.175 71.7116C334.175 110.004 308.838 142.17 264.694 142.17C220.549 142.17 195.212 110.004 195.212 71.7116C195.212 33.4195 220.565 1.23779 264.694 1.23779C308.822 1.23779 334.175 33.4038 334.175 71.6959V71.7116ZM317.237 71.7116C317.237 35.2839 298.838 4.62204 264.709 4.62204C230.581 4.62204 212.182 35.2839 212.182 71.7116C212.182 108.139 230.581 138.801 264.709 138.801C298.838 138.801 317.237 108.139 317.237 71.7116Z" fill="#CAA554"/>
<path d="M872.982 0.313477V6.75294H803.531V142.828H786.655V0.313477H872.982Z" fill="#CAA554"/>
<path d="M846.231 65.1626H800.58V71.6021H846.231V65.1626Z" fill="#CAA554"/>
<path d="M961.49 136.654H903.28V143H961.49V136.654Z" fill="#CAA554"/>
<path d="M886.2 28.4683H869.324V114.923H886.2V28.4683Z" fill="#CAA554"/>
<path d="M995.226 28.4683H978.35V114.923H995.226V28.4683Z" fill="#CAA554"/>
<path d="M961.49 6.7527V0.57959H903.076V6.7527H886.215V28.4683H903.076V6.90938H961.49V28.4683H978.35V6.7527H961.49Z" fill="#CAA554"/>
<path d="M903.28 114.939H886.404V136.655H903.28V114.939Z" fill="#CAA554"/>
<path d="M978.366 114.939H961.49V136.655H978.366V114.939Z" fill="#CAA554"/>
<path d="M1077.06 6.75282V71.7115H1021.82V6.75282H1077.06V0H1004.9V5.23304V6.75282V143H1021.82V78.7307H1048.35V100.384H1064.77V128.962H1081.6V100.384H1064.77V78.7307H1077.06V71.7115H1091.22V6.75282H1077.06Z" fill="#CAA554"/>
<path d="M1089.04 128.961H1081.65V142.984H1089.04V128.961Z" fill="#CAA554"/>
<path d="M1210.28 0V29.0011H1193.62V57.0465H1186.87V86.0476H1193.64V57.0935H1210.28V143H1227V57.0935V29.0011V0H1210.28Z" fill="#CAA554"/>
<path d="M1139.75 57.0465V29.0011H1123.09V0H1106.37V29.0011V57.0935V143H1123.09V57.0935H1139.75V86.0476H1146.51V57.0465H1139.75Z" fill="#CAA554"/>
<path d="M1156.73 86.0474H1146.51V114.735H1156.73V86.0474Z" fill="#CAA554"/>
<path d="M1186.97 86.0474H1176.75V114.735H1186.97V86.0474Z" fill="#CAA554"/>
<path d="M1176.75 114.735H1156.73V143H1176.75V114.735Z" fill="#CAA554"/>
<path d="M567.645 2.45996V5.65619C572.605 5.54652 577.77 5.24883 578.398 11.3279L578.194 133.38C577.064 138.738 571.883 137.61 567.645 137.61V140.807H606.404V137.61C597.315 138.237 595.651 137.093 595.039 128.225V71.5863H639.795V133.599C639.795 137.83 631.946 138.033 629.042 137.626V140.822H667.911V137.626C663.155 137.626 657.88 138.754 657.158 132.565L657.566 9.07177C658.916 5.04515 664.489 5.76587 667.911 5.67186V2.45996H629.152V5.65619C631.742 5.65619 635.258 5.34284 637.629 6.58059C638.351 6.98795 639.905 9.16578 639.905 9.68282V65.1938H595.965L595.133 64.3634V13.9131C595.133 13.7094 595.651 10.1999 595.761 9.79249C596.891 4.93547 602.48 5.67186 606.404 5.67186V2.45996H567.535H567.645Z" fill="#CAA554"/>
<path d="M193.626 2.36572H154.757V5.56195C154.961 5.56195 155.165 5.56195 155.384 5.54629C156.656 5.56195 158.461 5.51495 160.188 5.7343C160.329 5.74997 160.471 5.76564 160.612 5.79697C162.496 6.07899 164.223 6.69004 164.992 8.03747C165.212 8.35082 166.138 11.03 166.138 11.2337V65.1936H120.753V11.2337C120.753 11.03 121.68 8.35082 121.884 8.03747C122.669 6.69004 124.395 6.07899 126.279 5.79697C126.421 5.76564 126.562 5.74997 126.703 5.7343C128.43 5.51495 130.235 5.56195 131.507 5.56195H132.119V2.36572H93.2495V5.56195H93.2809L93.2495 5.65596C95.5572 5.65596 97.598 5.57762 99.3092 5.85964C99.419 5.87531 99.5289 5.90665 99.6388 5.92231C102.339 6.45502 104.129 7.99046 104.631 12.3618V129.886C104.003 138.033 100.801 137.924 93.2495 137.626V140.822H132.119V137.626C131.742 137.594 131.35 137.594 130.926 137.61C130.298 137.61 129.654 137.641 128.979 137.657C128.367 137.673 127.755 137.673 127.143 137.657C126.672 137.641 126.217 137.594 125.777 137.516C124.191 137.281 122.779 136.654 121.884 135.15C121.68 134.727 120.753 132.158 120.753 131.954V72.1031H166.138V131.954C166.138 132.158 165.212 134.727 164.992 135.15C164.097 136.654 162.684 137.281 161.114 137.516C160.989 137.547 160.848 137.563 160.706 137.579C160.392 137.61 160.078 137.641 159.749 137.657C159.121 137.688 158.493 137.673 157.865 137.657C157.362 137.641 156.86 137.626 156.389 137.61H156.075C155.604 137.61 155.165 137.61 154.757 137.626V140.822H193.626V137.626C186.091 137.924 182.888 138.033 182.26 129.886V12.3618C182.763 7.99046 184.537 6.45502 187.253 5.92231C187.362 5.90665 187.472 5.87531 187.567 5.85964C189.278 5.57762 191.318 5.65596 193.626 5.65596L193.595 5.56195H193.626V2.36572Z" fill="#CAA554"/>
<path d="M481.428 70.7558L482.668 71.5862L534.568 71.9936C537.456 73.1217 537.77 78.1824 537.974 80.9712C539.01 95.7303 537.142 111.711 537.974 126.674L537.66 128.022C516.671 144.833 485.148 141.841 467.566 121.629C438.304 87.7867 447.503 7.72427 500.957 4.62204C510.156 4.10501 532.59 8.13163 535.384 18.6604C538.068 28.9855 529.591 33.6231 523.594 40.0156V41.0497L525.243 42.6008L550.266 17.6263C522.354 -6.83112 472.731 -3.7289 449.481 25.6796C427.252 53.8503 428.806 105.632 458.681 128.131C483.798 147.011 531.349 147.528 554.301 124.622L554.709 75.7225C555.635 70.4581 561.318 71.6959 565.352 71.6019V65.2094H481.208V70.7872H481.412L481.428 70.7558Z" fill="#CAA554"/>
<path d="M762.966 19.5221H760.078C760.078 19.5221 756.436 11.9702 753.374 9.91771C748.869 6.84682 742.652 5.49939 737.126 5.6404C736.624 5.6404 736.137 5.6874 735.666 5.71874C734.206 5.84408 733.06 6.06343 732.181 6.40812C732.024 6.45512 731.867 6.51779 731.742 6.58046C731.632 6.62747 731.538 6.69014 731.428 6.75281C730.109 7.42653 729.481 8.4606 729.12 9.85503C729.12 9.8707 729.104 9.90204 729.104 9.93337C729.042 10.0744 728.994 10.2154 728.947 10.3721V131.5C728.837 134.085 730.91 137.689 733.594 137.689H741.867V140.885H698.869V137.689H707.142C709.827 137.689 711.899 134.085 711.789 131.5V10.3564C711.742 10.2154 711.695 10.0744 711.632 9.91771C711.632 9.88637 711.632 9.8707 711.616 9.83937C711.255 8.44493 710.627 7.41086 709.308 6.73714C709.199 6.67447 709.104 6.62747 708.994 6.5648C708.853 6.50213 708.712 6.43945 708.555 6.39245C707.676 6.04776 706.53 5.82841 705.07 5.70307C704.599 5.67173 704.112 5.6404 703.61 5.62473C698.084 5.48372 691.883 6.83115 687.362 9.90204C684.316 11.9545 680.659 19.5064 680.659 19.5064H677.77L680.721 6.06343L681.491 2.50684H759.23L759.999 6.06343L762.95 19.5064L762.966 19.5221Z" fill="#CAA554"/>
<path d="M85.1804 19.522H82.2919C82.2919 19.522 78.6498 11.9701 75.5886 9.91766C71.0831 6.84677 64.8665 5.49934 59.3406 5.64035C58.8382 5.64035 58.3516 5.68736 57.8806 5.71869C56.4207 5.84403 55.2747 6.06338 54.3955 6.40808C54.2386 6.45508 54.0816 6.51775 53.956 6.58042C53.8461 6.62742 53.7519 6.6901 53.642 6.75277C52.3233 7.42648 51.6954 8.46056 51.3343 9.85499C51.3343 9.87066 51.3186 9.90199 51.3186 9.93333C51.2558 10.0743 51.2087 10.2154 51.1616 10.372V131.5C51.0517 134.085 53.124 137.689 55.8084 137.689H64.0816V140.885H21.0832V137.689H29.3563C32.0408 137.689 34.113 134.085 34.0031 131.5V10.3564C33.956 10.2154 33.9089 10.0743 33.8461 9.91766C33.8461 9.88633 33.8461 9.87066 33.8304 9.83932C33.4693 8.44489 32.8414 7.41081 31.5227 6.7371C31.4128 6.67443 31.3186 6.62742 31.2088 6.56475C31.0675 6.50208 30.9262 6.43941 30.7692 6.39241C29.8901 6.04772 28.7441 5.82837 27.2841 5.70302C26.8132 5.67169 26.3265 5.64035 25.8241 5.62469C20.2982 5.48367 14.0973 6.83111 9.57613 9.90199C6.5306 11.9545 2.87284 19.5064 2.87284 19.5064H0L2.95133 6.07905L3.72056 2.52246H81.4599L82.2291 6.07905L85.1804 19.522Z" fill="#CAA554"/>
<path d="M408.021 2.45996V5.65619C413.5 5.65619 418.053 5.24883 418.775 11.845C417.221 43.823 420.847 77.6654 418.775 109.549C417.535 128.429 406.891 140.196 387.142 138.754C371.538 137.626 365.337 125.75 363.783 111.618V11.3279C363.987 5.23316 369.78 5.54652 374.536 5.65619V2.45996H335.777V5.65619C343.328 5.23316 345.698 6.17323 346.656 11.2966V100.556C346.483 122.773 355.133 140.023 381.35 141.95C404.615 143.705 420.329 135.041 422.087 110.583C424.254 78.8092 420.439 44.5593 422.087 12.4717C422.919 5.3585 426.53 5.65619 432.841 5.65619V2.45996H408.037H408.021Z" fill="#CAA554"/>
</g>
<defs>
<clipPath id="clip0_223_1530">
<rect width="1227" height="143" fill="white"/>
</clipPath>
</defs>
</svg>
