<?xml version="1.0" encoding="UTF-8"?>
<svg id="Layer_1" xmlns="http://www.w3.org/2000/svg" version="1.1" viewBox="0 0 690.68 690.68">
  <!-- Generator: Adobe Illustrator 29.8.3, SVG Export Plug-In . SVG Version: 2.1.1 Build 3)  -->
  <defs>
    <style>
      .st0 {
        fill: #caa554;
      }
    </style>
  </defs>
  <polygon class="st0" points="690.68 655.83 445.72 410.87 472.51 384.09 450.03 361.61 467.29 344.36 451.48 328.55 476.91 303.11 449.66 275.86 690.68 34.84 655.83 0 414.81 241.02 387.52 213.72 362.08 239.15 346.22 223.29 328.97 240.55 306.54 218.12 279.76 244.91 34.85 0 0 34.84 244.91 279.75 218.13 306.54 240.55 328.96 225.16 344.36 241.02 360.22 213.72 387.51 241.02 414.81 0 655.83 34.85 690.68 275.87 449.66 303.12 476.91 330.41 449.61 346.22 465.42 361.62 450.03 384.09 472.5 410.88 445.72 655.83 690.68 690.68 655.83"/>
</svg>