<?xml version="1.0" encoding="UTF-8"?>
<svg id="Layer_1" xmlns="http://www.w3.org/2000/svg" version="1.1" viewBox="0 0 927.48 927.48">
  <!-- Generator: Adobe Illustrator 29.8.3, SVG Export Plug-In . SVG Version: 2.1.1 Build 3)  -->
  <defs>
    <style>
      .st0 {
        fill: #caa554;
      }
    </style>
  </defs>
  <path class="st0" d="M576.48,490.64c7.2-1.48,14.65-2.25,22.28-2.25h328.72v-49.28h-328.72c-7.63,0-15.08-.78-22.28-2.25v-33.17h-14.42c4.14-6.37,8.99-12.41,14.57-17.99l232.44-232.44-34.85-34.85-232.44,232.44c-5.39,5.39-11.2,10.11-17.33,14.15v-19.31h-34.78c-.85-5.53-1.31-11.19-1.31-16.96V0h-49.28v328.72c0,5.77-.45,11.43-1.31,16.96h-34.78v19.31c-6.12-4.04-11.93-8.76-17.33-14.15L153.22,118.4l-34.85,34.85,232.44,232.44c5.59,5.58,10.44,11.62,14.57,17.99h-14.42v33.17c-7.2,1.48-14.65,2.25-22.28,2.25H0v49.28h328.72c7.63,0,15.08.78,22.28,2.25v33.17h14.42c-4.14,6.37-8.99,12.41-14.57,17.99l-232.44,232.44,34.85,34.85,232.44-232.44c5.39-5.39,11.2-10.11,17.33-14.15v19.31h34.78c.85,5.53,1.31,11.19,1.31,16.96v328.72h49.28v-328.72c0-5.77.45-11.43,1.31-16.96h34.78v-19.31c6.12,4.04,11.93,8.76,17.33,14.15l232.44,232.44,34.85-34.85-232.44-232.44c-5.59-5.59-10.44-11.62-14.57-17.99h14.42v-33.17h-.04Z"/>
</svg>