<?xml version="1.0" encoding="UTF-8"?>
<svg id="Layer_1" xmlns="http://www.w3.org/2000/svg" version="1.1" viewBox="0 0 3491.17 372">
  <!-- Generator: Adobe Illustrator 29.8.3, SVG Export Plug-In . SVG Version: 2.1.1 Build 3)  -->
  <defs>
    <style>
      .st0 {
        fill: #caa554;
      }
    </style>
  </defs>
  <path class="st0" d="M850.77,188.24c0,97.68-64.51,179.72-176.89,179.72s-176.89-82.05-176.89-179.72S561.53,8.47,673.88,8.47s176.89,82.05,176.89,179.73v.04h0ZM807.64,188.24c0-92.92-46.84-171.13-133.72-171.13s-133.72,78.21-133.72,171.13,46.84,171.13,133.72,171.13,133.72-78.21,133.72-171.13Z"/>
  <path class="st0" d="M2297.89,172.73l-4.16,14.03h-146.88v.04h-8.19l-1.96,10.83h-14.7l-33.57,174.37h-18.75l30.18-160.58h-7.04l2.48-13.75-16.47-.04,2.04-10.87h-148.27l4.16-14.03h146.87v-.04h8.19l1.96-10.83h14.71L2138.86,0h18.75l-26.98,148.07h7.03l-2.48,13.75,16.47.04-2.04,10.87h148.28Z"/>
  <path class="st0" d="M2589.91,6.11v16.43h-176.81v347.1h-42.96V6.11h219.77Z"/>
  <path class="st0" d="M2521.81,171.53h-116.22v16.43h116.22v-16.43Z"/>
  <path class="st0" d="M2815.24,353.89h-148.2v16.19h148.2v-16.19Z"/>
  <path class="st0" d="M2623.56,77.93h-42.96v220.53h42.96V77.93Z"/>
  <path class="st0" d="M2901.12,77.93h-42.96v220.53h42.96V77.93Z"/>
  <path class="st0" d="M2815.19,22.54V6.79h-148.67v15.75h-42.92v55.39h42.92V22.94h148.67v54.99h42.97V22.54h-42.97Z"/>
  <path class="st0" d="M2667.04,298.51h-42.96v55.39h42.96v-55.39Z"/>
  <path class="st0" d="M2858.16,298.51h-42.96v55.39h42.96v-55.39Z"/>
  <path class="st0" d="M3109.47,22.54v165.7h-140.68V22.54h140.68V5.31h-183.72v364.77h43.04v-163.94h67.54v55.23h41.84v72.9h42.85v-72.9h-42.85v-55.23h31.3v-17.9h36.05V22.54h-36.05Z"/>
  <path class="st0" d="M3139.96,334.27h-18.82v35.77h18.82v-35.77Z"/>
  <path class="st0" d="M3448.61,5.32v73.98h-42.4v71.58h-17.19v73.94h17.23v-73.86h42.36v219.13h42.56V5.32h-42.56Z"/>
  <path class="st0" d="M3269.05,150.87v-71.58h-42.41V5.31h-42.56v364.77h42.56v-219.13h42.41v73.86h17.22v-73.94h-17.22Z"/>
  <path class="st0" d="M3312.29,224.81h-26.02v73.18h26.02v-73.18Z"/>
  <path class="st0" d="M3389.26,224.81h-26.02v73.18h26.02v-73.18Z"/>
  <path class="st0" d="M3363.25,297.98h-50.96v72.1h50.96v-72.1Z"/>
  <path class="st0" d="M1445.14,11.59v8.15c12.63-.28,25.77-1.04,27.37,14.47l-.52,311.33c-2.87,13.67-16.06,10.79-26.85,10.79v8.15h98.67v-8.15c-23.14,1.6-27.37-1.32-28.93-23.94v-144.48h113.94v158.18c0,10.79-19.98,11.31-27.38,10.27v8.15h98.96v-8.15c-12.11,0-25.54,2.88-27.38-12.91l1.04-315.01c3.44-10.27,17.62-8.43,26.34-8.67v-8.15h-98.68v8.15c6.6,0,15.55-.8,21.58,2.36,1.84,1.04,5.8,6.59,5.8,7.91v141.6h-111.87l-2.11-2.12V40.79c0-.52,1.32-9.47,1.59-10.51,2.88-12.39,17.11-10.51,27.1-10.51v-8.15h-98.95.28v-.04h0Z"/>
  <path class="st0" d="M492.96,11.35h-98.96v8.15c.52,0,1.04,0,1.6-.04,3.24.04,7.83-.08,12.23.48.36.04.72.08,1.08.16,4.8.72,9.19,2.28,11.15,5.71.56.8,2.92,7.63,2.92,8.15v137.64h-115.54V33.96c0-.52,2.36-7.35,2.88-8.15,2-3.44,6.39-5,11.19-5.71.36-.08.72-.12,1.08-.16,4.4-.56,8.99-.44,12.23-.44h1.56v-8.15h-98.95v8.15h.08l-.08.24c5.88,0,11.07-.2,15.43.52.28.04.56.12.84.16,6.88,1.36,11.43,5.28,12.71,16.43v299.78c-1.6,20.78-9.75,20.5-28.98,19.74v8.15h98.95v-8.15c-.96-.08-1.96-.08-3.04-.04-1.6,0-3.24.08-4.96.12-1.56.04-3.12.04-4.68,0-1.2-.04-2.36-.16-3.48-.36-4.04-.6-7.63-2.2-9.91-6.04-.52-1.08-2.88-7.63-2.88-8.15v-152.67h115.54v152.67c0,.52-2.36,7.07-2.92,8.15-2.28,3.84-5.88,5.44-9.87,6.04-.32.08-.68.12-1.04.16-.8.08-1.6.16-2.44.2-1.6.08-3.2.04-4.8,0-1.28-.04-2.56-.08-3.76-.12h-.8c-1.2,0-2.32,0-3.36.04v8.15h98.96v-8.15c-19.18.76-27.34,1.04-28.93-19.74V36.85c1.28-11.15,5.79-15.07,12.71-16.43.28-.04.56-.12.8-.16,4.36-.72,9.55-.52,15.43-.52l-.08-.24h.08v-8.15h.01Z"/>
  <path class="st0" d="M1225.65,185.84l3.15,2.12,132.13,1.04c7.35,2.88,8.15,15.79,8.67,22.9,2.64,37.65-2.12,78.41,0,116.58l-.8,3.44c-53.43,42.88-133.68,35.25-178.44-16.31-74.5-86.32-51.08-290.55,85-298.46,23.42-1.32,80.53,8.95,87.65,35.81,6.83,26.34-14.75,38.17-30.02,54.47v2.64l4.2,3.96,63.71-63.71c-71.06-62.39-197.39-54.47-256.58,20.54-56.6,71.86-52.64,203.94,23.42,261.33,63.94,48.16,185,49.48,243.43-8.95l1.04-124.73c2.35-13.43,16.82-10.27,27.09-10.51v-16.31h-214.21v14.23h.52l.04-.08h0Z"/>
  <path class="st0" d="M1942.39,55.11h-7.36s-9.27-19.26-17.06-24.5c-11.47-7.83-27.3-11.27-41.37-10.91-1.27,0-2.51.12-3.71.2-3.72.32-6.64.88-8.87,1.76-.4.12-.8.28-1.12.44-.28.12-.52.28-.8.44-3.36,1.72-4.96,4.36-5.88,7.91,0,.04-.04.12-.04.2-.16.36-.28.72-.4,1.12v308.97c-.28,6.59,5,15.79,11.83,15.79h21.06v8.15h-109.46v-8.15h21.06c6.83,0,12.11-9.19,11.83-15.79V31.73c-.12-.36-.24-.72-.4-1.12,0-.08,0-.12-.04-.2-.92-3.56-2.52-6.19-5.87-7.91-.28-.16-.52-.28-.8-.44-.36-.16-.72-.32-1.12-.44-2.24-.88-5.16-1.44-8.88-1.76-1.19-.08-2.43-.16-3.71-.2-14.07-.36-29.86,3.08-41.37,10.91-7.75,5.24-17.06,24.5-17.06,24.5h-7.36l7.52-34.29,1.96-9.07h197.91l1.95,9.07,7.52,34.29.04.04h0Z"/>
  <path class="st0" d="M216.87,55.11h-7.35s-9.27-19.26-17.07-24.5c-11.47-7.83-27.3-11.27-41.36-10.91-1.28,0-2.52.12-3.72.2-3.72.32-6.63.88-8.87,1.76-.4.12-.8.28-1.12.44-.28.12-.52.28-.8.44-3.36,1.72-4.96,4.36-5.88,7.91,0,.04-.04.12-.04.2-.16.36-.28.72-.4,1.12v308.97c-.28,6.6,5,15.79,11.83,15.79h21.06v8.15H53.68v-8.15h21.06c6.83,0,12.11-9.19,11.83-15.79V31.73c-.12-.36-.24-.72-.4-1.12,0-.08,0-.12-.04-.2-.92-3.56-2.52-6.19-5.88-7.91-.28-.16-.52-.28-.8-.44-.36-.16-.72-.32-1.12-.44-2.24-.88-5.16-1.44-8.87-1.76-1.2-.08-2.44-.16-3.72-.2-14.07-.36-29.85,3.08-41.36,10.91-7.75,5.24-17.07,24.5-17.07,24.5H0L7.51,20.82l1.96-9.07h197.91l1.96,9.07,7.51,34.29h.02Z"/>
  <path class="st0" d="M1038.76,11.59v8.15c13.95,0,25.54-1.04,27.38,15.79-3.96,81.57,5.28,167.9,0,249.23-3.16,48.16-30.25,78.17-80.53,74.5-39.73-2.88-55.51-33.17-59.47-69.22V34.26c.52-15.55,15.27-14.75,27.38-14.47v-8.15h-98.68v8.15c19.22-1.08,25.26,1.32,27.7,14.39v227.68c-.44,56.67,21.58,100.67,88.32,105.59,59.23,4.48,99.24-17.62,103.71-80.01,5.52-81.05-4.19-168.41,0-250.26,2.12-18.14,11.31-17.39,27.38-17.39v-8.15h-63.15l-.04-.04h0Z"/>
</svg>